{
  "asset": {
    "extras": {
      "author": "DuNguyn Studio (https://sketchfab.com/dunguyn)",
      "license": "CC-BY-4.0 (http://creativecommons.org/licenses/by/4.0/)",
      "source": "https://sketchfab.com/3d-models/free-pack-stylized-tomato-7613f2aec8f54695b7c219946473cb24",
      "title": "Free Pack - Stylized Tomato"
    },
    "generator": "gltfeditor.com",
    "version": "2.0"
  },
  "buffers": [
    {
      "uri": "untitled.bin",
      "byteLength": 80352
    }
  ],
  "bufferViews": [
    {
      "buffer": 0,
      "byteOffset": 0,
      "byteLength": 32976,
      "byteStride": 24,
      "target": 34962
    },
    {
      "buffer": 0,
      "byteOffset": 32976,
      "byteLength": 21984,
      "byteStride": 16,
      "target": 34962
    },
    {
      "buffer": 0,
      "byteOffset": 54960,
      "byteLength": 10992,
      "byteStride": 8,
      "target": 34962
    },
    {
      "buffer": 0,
      "byteOffset": 65952,
      "byteLength": 14400,
      "target": 34963
    }
  ],
  "accessors": [
    {
      "bufferView": 0,
      "byteOffset": 0,
      "componentType": 5126,
      "normalized": false,
      "count": 1374,
      "min": [
        -0.9996948838233948,
        -0.993736982345581,
        -0.9979287981987
      ],
      "max": [
        0.9986810088157654,
        1,
        0.9940911531448364
      ],
      "type": "VEC3"
    },
    {
      "bufferView": 0,
      "byteOffset": 12,
      "componentType": 5126,
      "normalized": false,
      "count": 1374,
      "min": [
        64.47767639160156,
        -0.000007000000096013537,
        -8.174457550048828
      ],
      "max": [
        97.09505462646484,
        47.484649658203125,
        32.507755279541016
      ],
      "type": "VEC3"
    },
    {
      "bufferView": 1,
      "byteOffset": 0,
      "componentType": 5126,
      "normalized": false,
      "count": 1374,
      "min": [
        -0.9994083642959595,
        -0.9975012540817261,
        -0.9980418682098389,
        -1
      ],
      "max": [
        0.999130129814148,
        0.9967597723007202,
        0.9997735619544983,
        1
      ],
      "type": "VEC4"
    },
    {
      "bufferView": 2,
      "byteOffset": 0,
      "componentType": 5126,
      "normalized": false,
      "count": 1374,
      "min": [
        0.008929000236093998,
        0.007428999990224838
      ],
      "max": [
        0.8379110097885132,
        0.9906139969825745
      ],
      "type": "VEC2"
    },
    {
      "bufferView": 3,
      "byteOffset": 0,
      "componentType": 5125,
      "normalized": false,
      "count": 3600,
      "min": [
        0
      ],
      "max": [
        1373
      ],
      "type": "SCALAR"
    }
  ],
  "scene": 0,
  "scenes": [
    {
      "nodes": [
        5
      ]
    }
  ],
  "nodes": [
    {
      "name": "SM_Tomato_Lv3_Tomato_SG_0",
      "mesh": 0
    },
    {
      "name": "SM_Tomato_Lv3",
      "children": [
        0
      ],
      "matrix": [
        1,
        0,
        0,
        0,
        0,
        1,
        0,
        0,
        0,
        0,
        1,
        0,
        -53.74825668334961,
        1.8331120070322453e-21,
        -4.7012758841447067e-7,
        1
      ]
    },
    {
      "name": "Tomato",
      "children": [
        1
      ],
      "matrix": [
        1,
        0,
        0,
        0,
        0,
        1,
        0,
        0,
        0,
        0,
        1,
        0,
        -25.427919387817383,
        0,
        -14.409154891967773,
        1
      ]
    },
    {
      "name": "RootNode",
      "children": [
        2
      ]
    },
    {
      "name": "e0e9f0a257434aff97e7734d57dffb85.fbx",
      "children": [
        3
      ],
      "matrix": [
        0.009999999776482582,
        0,
        0,
        0,
        0,
        3.42285422227917e-10,
        0.009999999776482582,
        0,
        0,
        -0.009999999776482582,
        3.42285422227917e-10,
        0,
        0,
        0,
        0,
        1
      ]
    },
    {
      "name": "Sketchfab_model",
      "children": [
        4
      ],
      "matrix": [
        1,
        0,
        0,
        0,
        0,
        3.422854177870249e-8,
        -0.9999999403953552,
        0,
        0,
        0.9999999403953552,
        3.422854177870249e-8,
        0,
        0,
        0,
        0,
        1
      ]
    }
  ],
  "meshes": [
    {
      "primitives": [
        {
          "material": 0,
          "mode": 4,
          "attributes": {
            "NORMAL": 0,
            "POSITION": 1,
            "TANGENT": 2,
            "TEXCOORD_0": 3
          },
          "indices": 4
        }
      ]
    }
  ],
  "materials": [
    {
      "name": "Tomato_SG",
      "pbrMetallicRoughness": {
        "baseColorFactor": [
          1,
          1,
          1,
          1
        ],
        "metallicFactor": 0,
        "roughnessFactor": 1,
        "baseColorTexture": {
          "index": 0,
          "texCoord": 0
        },
        "metallicRoughnessTexture": {
          "index": 1,
          "texCoord": 0
        }
      },
      "emissiveFactor": [
        0,
        0,
        0
      ],
      "alphaMode": "OPAQUE",
      "doubleSided": true,
      "normalTexture": {
        "index": 2,
        "texCoord": 0,
        "scale": 1
      }
    }
  ],
  "textures": [
    {
      "sampler": 0,
      "name": "base.jpg",
      "source": 0
    },
    {
      "sampler": 1,
      "name": "metallicRoughness.jpg",
      "source": 1
    },
    {
      "sampler": 2,
      "name": "normal.jpg",
      "source": 2
    }
  ],
  "samplers": [
    {
      "magFilter": 9729,
      "minFilter": 9987,
      "wrapS": 10497,
      "wrapT": 10497
    },
    {
      "magFilter": 9729,
      "minFilter": 9987,
      "wrapS": 10497,
      "wrapT": 10497
    },
    {
      "magFilter": 9729,
      "minFilter": 9987,
      "wrapS": 10497,
      "wrapT": 10497
    }
  ],
  "images": [
    {
      "uri": "base.jpg",
      "mimeType": "image/jpeg",
      "name": "base.jpg"
    },
    {
      "uri": "metallicRoughness.jpg",
      "mimeType": "image/jpeg",
      "name": "metallicRoughness.jpg"
    },
    {
      "uri": "normal.jpg",
      "mimeType": "image/jpeg",
      "name": "normal.jpg"
    }
  ]
}